# xmcd
#
# Track frame offsets: 
#        150
#        13746
#        29872
#        43751
#        59115
#        70711
#        87565
#        100589
#        117584
#        130004
#        145924
#        164921
#        175097
#        187048
#        199051
#        211976
#        226032
#        246310
#        260050
#        273146
#        290931
#
# Disc length: 4139 seconds
#
# Revision: 0
# Processed by: cddbd v1.5.2PL0 Copyright (c) Steve Scherf et al.
# Submitted via: ExactAudioCopyFreeDBPlugin 1.0
#
DISCID=4f102915
DTITLE=The Ovations - One in a Million:  The XL and Sounds of Memphis 
DTITLE=Recordings [Kent]
DYEAR=2008
DGENRE=Soul
TTITLE0=Hooked on a Feeling
TTITLE1=I Can't Be Satisified
TTITLE2=One in a Million
TTITLE3=Take It from One Who Knows
TTITLE4=So Nice to Be Loved By You
TTITLE5=Touching Me
TTITLE6=Don't Break Your Promise
TTITLE7=You'll Never Know
TTITLE8=Soul Train
TTITLE9=Having a Party
TTITLE10=I Can't Believe It's Over
TTITLE11=Don't Say You Love Me (If You Don't Mean It)
TTITLE12=I'm in Love
TTITLE13=Pure Natural Love
TTITLE14=Sweet Thing
TTITLE15=Till I Find Some Way
TTITLE16=I Care for You
TTITLE17=Hangin' On
TTITLE18=I Can't Believe It's Over (Slow)
TTITLE19=You're My Little Girl
TTITLE20=Gotta Get Free
EXTD=
EXTT0=
EXTT1=
EXTT2=
EXTT3=
EXTT4=
EXTT5=
EXTT6=
EXTT7=
EXTT8=
EXTT9=
EXTT10=
EXTT11=
EXTT12=
EXTT13=
EXTT14=
EXTT15=
EXTT16=
EXTT17=
EXTT18=
EXTT19=
EXTT20=
PLAYORDER=
